<?xml version="1.0" encoding="utf-8"?>
<!-- Generator: Adobe Illustrator 26.5.0, SVG Export Plug-In . SVG Version: 6.00 Build 0)  -->
<svg version="1.1" id="Layer_1" xmlns="http://www.w3.org/2000/svg" xmlns:xlink="http://www.w3.org/1999/xlink" x="0px" y="0px"
	 viewBox="0 0 174 32" style="enable-background:new 0 0 174 32;" xml:space="preserve">
<style type="text/css">
	.st0{fill:#FF6800;}
	.st1{fill:#4848F5;}
	.st2{fill:#FFFFFF;}
</style>
<path class="st0" d="M164.4,20.6V24h-3.5v-3.4H164.4z"/>
<polygon class="st0" points="6.3,0 17.8,29.7 11.5,32 0,0 "/>
<circle class="st1" cx="36" cy="16" r="16"/>
<g>
	<path class="st2" d="M71.8,10.4l3.3,10.4h0.1l3.3-10.4h3.2L77.1,24h-3.7l-4.7-13.6H71.8z"/>
	<path class="st2" d="M90,10.4V24h-2.9V10.4H90z"/>
	<path class="st2" d="M108.2,15.1h-2.9c-0.1-0.4-0.2-0.7-0.3-1c-0.2-0.3-0.4-0.5-0.6-0.8c-0.3-0.2-0.6-0.4-0.9-0.5s-0.7-0.2-1.1-0.2
		c-0.7,0-1.3,0.2-1.8,0.5s-0.9,0.9-1.2,1.5C99.1,15.3,99,16.1,99,17c0,1,0.1,1.8,0.4,2.5s0.7,1.2,1.2,1.5s1.1,0.5,1.8,0.5
		c0.4,0,0.7-0.1,1.1-0.2c0.3-0.1,0.6-0.3,0.9-0.4c0.3-0.2,0.5-0.4,0.6-0.7c0.2-0.3,0.3-0.6,0.4-1h2.9c-0.1,0.6-0.3,1.2-0.6,1.8
		s-0.7,1.1-1.2,1.6s-1.1,0.8-1.8,1.1c-0.7,0.3-1.5,0.4-2.4,0.4c-1.2,0-2.3-0.3-3.3-0.8c-1-0.6-1.7-1.3-2.3-2.4s-0.8-2.3-0.8-3.8
		s0.3-2.8,0.8-3.8s1.3-1.8,2.3-2.4c1-0.5,2-0.8,3.2-0.8c0.8,0,1.5,0.1,2.2,0.3s1.3,0.5,1.8,1c0.5,0.4,1,0.9,1.3,1.6
		S108.1,14.3,108.2,15.1z"/>
	<path class="st2" d="M114,24V10.4h2.9v6h0.2l4.9-6h3.5l-5.1,6.1l5.1,7.5H122l-3.7-5.6l-1.4,1.7V24H114z"/>
	<path class="st2" d="M133.6,10.4V24h-2.9V10.4H133.6z"/>
	<path class="st2" d="M139.7,24V10.4h9.2v2.4h-6.3V16h5.8v2.4h-5.8v3.3h6.3V24H139.7z"/>
</g>
<polygon class="st0" points="30.5,0 19,32 12.7,29.7 24.2,0 "/>
<polygon class="st0" points="11.6,30.6 11.5,32 19,32 18.7,30.5 "/>
<polygon class="st2" points="45.1,0 33.6,32 27.3,32 38.8,0 "/>
</svg>
